<svg xmlns="http://www.w3.org/2000/svg" width="106.656" height="35.094">
  <path
    d="M11.385 33.638a6.378 6.378 0 0 0 2.5-1.674 4.312 4.312 0 0 0 1.066-2.24 4.652 4.652 0 0 0-.314-2.423 3.812 3.812 0 0 0-1.5-1.956 3.91 3.91 0 0 0-1.93-.581 13.117 13.117 0 0 0-2.321.195 8.184 8.184 0 0 1-1.528.133.666.666 0 0 1-.645-.413q-.324-.808 1.069-1.367a6.252 6.252 0 0 1 3.369-.241l-.173-3.577a6.607 6.607 0 0 0-2.211-.084 9 9 0 0 0-2.281.584 6.464 6.464 0 0 0-2.5 1.665A4.231 4.231 0 0 0 2.914 23.9a4.7 4.7 0 0 0 .317 2.432 3.89 3.89 0 0 0 1.5 1.968 3.847 3.847 0 0 0 1.911.6 14.761 14.761 0 0 0 2.336-.158 8.516 8.516 0 0 1 1.562-.114.7.7 0 0 1 .664.437.606.606 0 0 1-.112.652 2.579 2.579 0 0 1-1 .6 6.111 6.111 0 0 1-1.951.409 7.312 7.312 0 0 1-2.057-.167l.1 3.626a6.814 6.814 0 0 0 2.461.133 10.2 10.2 0 0 0 2.739-.682Zm8.876-7.248a1.63 1.63 0 0 1-1.9-.262l5.2-3.618a6.376 6.376 0 0 0-1.728-2.538 4.577 4.577 0 0 0-2.36-1.1 4.855 4.855 0 0 0-2.521.317 4.965 4.965 0 0 0-3.174 4.183 6.534 6.534 0 0 0 2.154 5.374 4.937 4.937 0 0 0 2.52 1.154 5.585 5.585 0 0 0 2.933-.4 4.689 4.689 0 0 0 3.015-3.082l-2.683-1.462a3.41 3.41 0 0 1-.591.9 2.475 2.475 0 0 1-.86.537ZM18.1 22.012a1.256 1.256 0 0 1 .9-.031 1.667 1.667 0 0 1 .773.575l-2.429 1.7a2.305 2.305 0 0 1-.049-1.43 1.336 1.336 0 0 1 .8-.812Zm7.749-4.919-.435-1.084-3.292 1.32 4.029 10.049 3.46-1.387-1.79-4.464q-.869-2.168.907-2.88a4.745 4.745 0 0 1 .8-.233l-1.473-3.674a3.376 3.376 0 0 0-2.2 2.354Zm8.463-4.864a3.407 3.407 0 0 0-1.96 1.937L30.59 9.775l-3.46 1.387 5.465 13.632 3.46-1.387-1.893-4.722a2.8 2.8 0 0 1-.255-1.678 1.2 1.2 0 0 1 .746-.864q1.026-.411 1.718 1.316l2.011 5.016 3.46-1.387-2.3-5.732a5.559 5.559 0 0 0-2.3-3 3.329 3.329 0 0 0-2.937-.123Zm8.5 8.472 3.46-1.387-4.035-10.05-3.46 1.387ZM40.183 9.149a2.111 2.111 0 0 0 1.269-1.223 2.4 2.4 0 0 0-.063-1.8 2.15 2.15 0 0 0-1.156-1.243 2.2 2.2 0 0 0-1.744.038 2.152 2.152 0 0 0-1.269 1.2 2.261 2.261 0 0 0 .033 1.746 2.26 2.26 0 0 0 1.182 1.286 2.151 2.151 0 0 0 1.747-.007Zm7.078 9.766 3.46-1.387-4.028-10.05-3.46 1.387ZM44.638 7.363a2.112 2.112 0 0 0 1.269-1.223 2.4 2.4 0 0 0-.063-1.8 2.15 2.15 0 0 0-1.155-1.24 2.2 2.2 0 0 0-1.744.038 2.152 2.152 0 0 0-1.269 1.2 2.26 2.26 0 0 0 .033 1.746 2.259 2.259 0 0 0 1.182 1.286 2.151 2.151 0 0 0 1.747-.007Zm.644 17.392h-4.124v10.28h2.888v-2.526h1.236a4.331 4.331 0 0 0 2.068-.47 3.256 3.256 0 0 0 1.358-1.351 4.666 4.666 0 0 0 0-4.112 3.258 3.258 0 0 0-1.358-1.351 4.334 4.334 0 0 0-2.068-.47Zm-.182 5.082h-1.054v-2.408H45.1a1.147 1.147 0 0 1 .881.316 1.491 1.491 0 0 1 0 1.777 1.146 1.146 0 0 1-.881.316ZM54.289 27v3.186a2.193 2.193 0 0 1-.269 1.226.8.8 0 0 1-.673.389.717.717 0 0 1-.648-.352 2.323 2.323 0 0 1-.22-1.175V27h-2.767v3.85a4.342 4.342 0 0 0 .771 2.812 2.519 2.519 0 0 0 2.044.932 2.333 2.333 0 0 0 1.762-.764v.06a1.842 1.842 0 0 1-.373 1.248 1.51 1.51 0 0 1-1.193.426 3.253 3.253 0 0 1-1.132-.22 3.029 3.029 0 0 1-.985-.573l-.93 2.261a4.343 4.343 0 0 0 1.475.742 6.473 6.473 0 0 0 1.849.257 3.859 3.859 0 0 0 3-1.153 4.937 4.937 0 0 0 1.059-3.443V27h-2.77Zm6.363 8.179a3.575 3.575 0 0 0 1.187-.206l-.11-2.452a.852.852 0 0 1-.226.1.919.919 0 0 1-.275.044.547.547 0 0 1-.453-.2.91.91 0 0 1-.159-.58v-7.746H57.85v7.93a3.286 3.286 0 0 0 .74 2.313 2.669 2.669 0 0 0 2.062.8ZM66.7 27v3.186a2.192 2.192 0 0 1-.269 1.226.8.8 0 0 1-.673.389.717.717 0 0 1-.649-.352 2.324 2.324 0 0 1-.22-1.175V27H62.12v3.85a4.341 4.341 0 0 0 .771 2.812 2.519 2.519 0 0 0 2.044.932 2.333 2.333 0 0 0 1.762-.764v.06a1.841 1.841 0 0 1-.373 1.248 1.509 1.509 0 0 1-1.193.426 3.253 3.253 0 0 1-1.131-.22 3.029 3.029 0 0 1-.985-.573l-.93 2.261a4.345 4.345 0 0 0 1.475.742 6.473 6.473 0 0 0 1.854.257 3.858 3.858 0 0 0 2.986-1.153 4.937 4.937 0 0 0 1.058-3.443V27H66.7Zm8.028-.147a2.137 2.137 0 0 0-1.836.808V27h-2.634v10.884h2.766v-3.392a2.109 2.109 0 0 0 1.7.69 2.811 2.811 0 0 0 1.621-.507 3.453 3.453 0 0 0 1.175-1.454 5.783 5.783 0 0 0 0-4.4 3.447 3.447 0 0 0-1.175-1.461 2.812 2.812 0 0 0-1.621-.507Zm-.664 5.747a.936.936 0 0 1-.783-.411 1.912 1.912 0 0 1-.306-1.16 1.947 1.947 0 0 1 .306-1.167.942.942 0 0 1 1.566 0 1.948 1.948 0 0 1 .306 1.167 1.913 1.913 0 0 1-.306 1.16.937.937 0 0 1-.783.411Zm8.113.132a1.209 1.209 0 0 1-1.236-.7l4.577-1.057a4.73 4.73 0 0 0-.49-2.225 3.4 3.4 0 0 0-1.322-1.41 3.6 3.6 0 0 0-1.823-.477 3.684 3.684 0 0 0-3.341 2 4.847 4.847 0 0 0 0 4.3 3.663 3.663 0 0 0 1.419 1.49 4.144 4.144 0 0 0 2.129.536 3.479 3.479 0 0 0 2.925-1.292l-1.444-1.747a2.532 2.532 0 0 1-.655.455 1.836 1.836 0 0 1-.74.132Zm-.277-3.615a.932.932 0 0 1 .63.228 1.237 1.237 0 0 1 .373.61l-2.141.5a1.71 1.71 0 0 1 .361-1 .991.991 0 0 1 .777-.338Zm8.713-2.261a2.648 2.648 0 0 0-1.114.235 2.559 2.559 0 0 0-.905.7V27h-2.636v8.032h2.766v-3.771a2.079 2.079 0 0 1 .288-1.226.893.893 0 0 1 .753-.389q.82 0 .82 1.38v4.009h2.766v-4.581a4.124 4.124 0 0 0-.752-2.7 2.47 2.47 0 0 0-1.989-.9Zm8.346 8.179h3.341l-2.986-4.552 2.76-3.483h-3.267l-1.921 2.335v-5.2H94.12v10.9h2.766v-1.894l.441-.573Zm6.694.147a3.818 3.818 0 0 0 2.013-.536 3.705 3.705 0 0 0 1.383-1.483 4.922 4.922 0 0 0 0-4.3 3.654 3.654 0 0 0-1.383-1.476 4.074 4.074 0 0 0-4.014 0 3.682 3.682 0 0 0-1.389 1.476 4.86 4.86 0 0 0 0 4.3 3.733 3.733 0 0 0 1.389 1.483 3.79 3.79 0 0 0 2 .536Zm0-2.585a.931.931 0 0 1-.783-.418 1.947 1.947 0 0 1-.306-1.168 1.913 1.913 0 0 1 .306-1.16.951.951 0 0 1 1.566 0 1.913 1.913 0 0 1 .306 1.16 1.947 1.947 0 0 1-.306 1.168.932.932 0 0 1-.783.418Z"
    transform="translate(-2.875 -2.938)" style="fill-rule:evenodd"/>
</svg>
